<svg xmlns="http://www.w3.org/2000/svg" width="1590" height="1536" viewBox="0 0 1590 1536" version="1.1"><path d="" stroke="none" fill="#b89c34" fill-rule="evenodd"/><path d="M 744.500 2.136 C 712.070 4.253, 674.213 9.374, 641 16.136 C 511.078 42.586, 415.983 83.724, 315.500 156.947 C 257.901 198.920, 210.175 244.372, 167.674 297.730 C 106.477 374.560, 61.827 457.922, 35.947 543.662 C 24.891 580.291, 12.443 635.693, 7.562 670 C 2.269 707.203, 1.524 719.294, 1.524 768 C 1.524 816.706, 2.269 828.797, 7.562 866 C 12.443 900.307, 24.891 955.709, 35.947 992.338 C 64.460 1086.803, 116.272 1179.158, 187.078 1261.730 C 251.300 1336.623, 340.594 1405.227, 434.029 1451.460 C 485.687 1477.021, 532.642 1493.958, 593.500 1508.982 C 671.762 1528.303, 723.630 1535, 795 1535 C 866.370 1535, 918.238 1528.303, 996.500 1508.982 C 1057.358 1493.958, 1104.313 1477.021, 1155.971 1451.460 C 1234.950 1412.380, 1313.007 1355.960, 1372.069 1295.266 C 1437.320 1228.211, 1493.288 1145.010, 1528.313 1063 C 1557.111 995.570, 1578.723 909.696, 1586.702 831 C 1588.118 817.028, 1588.476 804.326, 1588.476 768 C 1588.476 719.294, 1587.731 707.203, 1582.438 670 C 1577.557 635.693, 1565.109 580.291, 1554.053 543.662 C 1525.540 449.197, 1473.728 356.842, 1402.922 274.270 C 1332.280 191.890, 1230.776 116.924, 1128.236 71.401 C 1085.537 52.445, 1047.261 39.549, 996.500 27.018 C 936.923 12.310, 893.528 5.264, 842.517 2.017 C 823.888 0.832, 763.359 0.905, 744.500 2.136 M 774 55.634 C 540.378 63.063, 328.644 171.757, 193.280 353.750 C 118.997 453.622, 73.030 570.080, 59.572 692.500 C 54.280 740.640, 54.280 795.360, 59.572 843.500 C 91.823 1136.877, 309.941 1381.805, 605.861 1456.938 C 669.074 1472.987, 728.018 1480.253, 795 1480.253 C 861.982 1480.253, 920.926 1472.987, 984.139 1456.938 C 1269.716 1384.431, 1485.064 1151.944, 1526.879 871 C 1535.539 812.821, 1536.782 750.298, 1530.428 692.500 C 1514.541 547.983, 1453.332 412.154, 1354.457 302 C 1342.801 289.015, 1310.676 256.845, 1298.500 245.967 C 1182.302 142.147, 1035.184 76.958, 879 60.086 C 847.629 56.697, 801.753 54.752, 774 55.634 M 753 116.595 C 750.525 116.795, 742.200 117.446, 734.500 118.039 C 559.793 131.511, 392.094 210.715, 275.654 334.751 C 175.344 441.604, 117.004 569.958, 102.820 715 C 101.037 733.239, 101.037 803.761, 102.820 822 C 114.512 941.556, 156.669 1050.912, 227.296 1144.893 C 348.412 1306.058, 537.662 1406.134, 747.500 1419.979 C 766.825 1421.254, 820.175 1421.254, 839.500 1419.979 C 993.648 1409.808, 1138.204 1352.959, 1252.500 1257.559 C 1378.962 1152.004, 1459.499 1008.294, 1480.899 850 C 1484.853 820.756, 1485.500 809.294, 1485.500 768.500 C 1485.500 727.687, 1484.850 716.188, 1480.895 687 C 1442.703 405.198, 1218.288 180.178, 922.500 127.099 C 878.265 119.161, 851.990 116.884, 800.500 116.527 C 776.850 116.364, 755.475 116.394, 753 116.595 M 763.208 133.091 C 656.831 137.412, 552.285 165.532, 461.503 214.243 C 351.123 273.469, 261.255 359.134, 200.018 463.500 C 189.275 481.810, 168.763 523.550, 161.196 542.500 C 131.457 616.974, 117.705 688.565, 117.782 768.500 C 117.849 838.905, 127.965 900.309, 150.091 964.630 C 161.903 998.968, 181.599 1042.006, 199.456 1072.500 C 285.916 1220.146, 428.104 1329.104, 597.468 1377.495 C 702.906 1407.622, 819.092 1412.686, 928.500 1391.924 C 1096.740 1359.999, 1245.214 1268.571, 1346.058 1134.801 C 1384.810 1083.396, 1416.424 1024.180, 1436.909 964.630 C 1459.022 900.348, 1469.235 838.384, 1469.235 768.500 C 1469.235 698.616, 1459.022 636.652, 1436.909 572.370 C 1425.097 538.032, 1405.401 494.994, 1387.544 464.500 C 1302.407 319.113, 1161.629 210.032, 996.500 161.502 C 938.539 144.468, 883.708 135.619, 820 133.019 C 793.362 131.932, 791.702 131.934, 763.208 133.091 M 765.108 248.912 C 763.218 250.109, 763.961 255.212, 770.112 283.278 C 778.560 321.832, 779.752 332.053, 776.364 336.891 C 774.986 338.858, 774.111 339.144, 770.825 338.703 C 763.466 337.716, 761.617 334.282, 763.265 324.663 C 764.283 318.721, 764.212 317.892, 762.531 316.035 C 760.367 313.643, 752.228 311, 747.029 311 C 737.329 311, 725.245 316.580, 722.951 322.118 C 720.667 327.631, 723.009 330.044, 735.402 334.948 C 737.100 335.619, 737.930 336.461, 737.402 336.975 C 734.901 339.413, 638.054 360, 629.089 360 C 625.466 360, 617.179 354.466, 605.493 344.243 C 590.629 331.241, 585 327.734, 585 331.476 C 585 333.200, 586.767 336.143, 593.140 345.030 C 597.945 351.730, 601 359.041, 601 363.839 C 601 368.664, 596.245 376.652, 591.176 380.343 C 583.267 386.101, 579.216 386.253, 576.446 380.896 C 574.279 376.705, 573 378.178, 573 384.863 C 573 389.469, 573.568 391.505, 575.865 395.126 C 578.754 399.682, 583.843 403, 587.941 403 C 590.984 403, 597.053 399.673, 600.089 396.342 C 607.230 388.504, 609.854 382.118, 610.824 370.209 L 611.500 361.919 621.755 369.459 C 627.395 373.607, 632.818 377, 633.806 377 C 634.794 377, 649.079 374.063, 665.551 370.474 C 708.828 361.043, 730.058 355.204, 739.485 350.141 C 744.790 347.291, 747.998 347.437, 758.048 350.980 C 770.604 355.408, 777.971 354.667, 782.832 348.486 C 784.716 346.091, 784.999 344.472, 784.991 336.115 C 784.973 316.461, 778.742 269.306, 774.371 255.751 C 772.356 249.501, 768.580 246.714, 765.108 248.912 M 807.317 252.617 C 805.271 257.949, 810.667 329.554, 814.184 343.750 C 815.448 348.851, 816.557 349.175, 817.398 344.690 C 818.581 338.389, 814.817 276.718, 812.443 263.500 C 810.338 251.775, 808.851 248.618, 807.317 252.617 M 726.988 254.316 C 713.263 259.962, 687.273 275.642, 669.525 288.981 C 652.277 301.945, 650.728 307.032, 666.599 298.589 C 674.597 294.335, 730.376 258.566, 734.250 255.207 C 738.574 251.459, 734.997 251.020, 726.988 254.316 M 557.329 275.406 C 553.566 277.104, 552.171 279.415, 551.408 285.210 C 551.017 288.182, 551.299 290.108, 552.327 291.480 C 553.783 293.425, 553.880 293.427, 557.655 291.612 C 572.135 284.649, 574.780 287.287, 564.977 298.913 C 559.918 304.911, 559.673 307.512, 564.250 306.608 C 568.934 305.683, 578.130 299.763, 580.726 296.001 C 585.403 289.224, 584.170 281.312, 577.699 276.581 C 574.106 273.954, 562.081 273.260, 557.329 275.406 M 873.725 278.752 C 869.155 283.801, 869.890 290.409, 875.514 294.832 C 879.118 297.667, 880.570 297.567, 883.624 294.272 L 886.153 291.543 890.024 293.772 C 892.154 294.997, 894.966 296, 896.274 296 C 899.306 296, 902.787 292.314, 903.602 288.242 C 904.130 285.600, 903.735 284.581, 901.194 282.040 C 897.475 278.321, 894.154 278.159, 890.182 281.500 C 888.548 282.875, 886.826 284, 886.356 284 C 885.885 284, 884.243 282.425, 882.707 280.500 C 879.598 276.603, 876.257 275.953, 873.725 278.752 M 1000.599 279.489 C 996.741 285.378, 978.218 375.544, 979.188 383.714 C 979.699 388.021, 981.865 387.560, 984.021 382.685 C 989.557 370.170, 1006.672 283.799, 1004.656 278.547 C 1003.804 276.325, 1002.469 276.635, 1000.599 279.489 M 879.618 314.330 C 875.913 318.286, 868.350 331.306, 866.294 337.268 C 865.491 339.596, 864.813 343.789, 864.787 346.587 C 864.704 355.578, 869.551 360, 879.490 360 C 889.433 360, 897.508 353.693, 900.529 343.568 C 904.172 331.356, 900.833 321.238, 890.747 313.932 C 885.545 310.164, 883.449 310.239, 879.618 314.330 M 1030.174 321.314 C 1027.118 324.568, 1027.271 330.462, 1030.536 335.268 C 1033.344 339.400, 1033.365 339.410, 1035.976 338.013 C 1041.261 335.184, 1043.947 324.072, 1040.171 320.655 C 1037.516 318.252, 1032.756 318.566, 1030.174 321.314 M 490.250 320.652 C 486.685 322.121, 491.088 328.694, 514.931 357.500 C 538.966 386.536, 549.806 402.116, 550.714 408.928 C 551.674 416.129, 538.531 431.039, 526.195 436.744 C 521.538 438.898, 520.524 439.046, 517.896 437.957 C 514.032 436.357, 509.185 430.390, 503.721 420.507 C 501.323 416.169, 498.853 412.451, 498.233 412.244 C 495.240 411.247, 501.284 431.414, 506.599 440.164 C 510.769 447.027, 519.775 455.505, 523.739 456.298 C 530.069 457.564, 538.828 453.763, 547.118 446.154 C 556.953 437.127, 562.781 423.852, 561.418 413.582 C 560.479 406.502, 553.435 393.495, 542.420 378.500 C 525.667 355.695, 516.504 342.678, 512.502 336 C 510.360 332.425, 507.683 328.444, 506.553 327.153 C 502.971 323.058, 493.539 319.296, 490.250 320.652 M 878.258 333.298 C 872.224 335.991, 876.603 343.410, 883.868 342.803 C 888.281 342.435, 889.137 339.715, 886.069 335.814 C 883.648 332.737, 881.248 331.964, 878.258 333.298 M 946.552 335.900 C 944.680 339.519, 944.400 345.250, 945.471 358.002 C 946.198 366.663, 946.070 367.968, 944.015 372.744 C 938.307 386.011, 920.635 393.873, 896.309 393.965 C 891.254 393.984, 886.877 394.390, 886.583 394.866 C 885.736 396.236, 888.967 398.619, 896.516 402.193 C 902.898 405.215, 904.320 405.500, 913.021 405.500 C 921.752 405.500, 923.093 405.229, 929.180 402.232 C 950.286 391.842, 964.243 357.189, 954.907 338.356 C 951.903 332.296, 948.875 331.406, 946.552 335.900 M 1036.809 368.750 C 1032.036 373.867, 1031.695 375.405, 1032.439 388.454 C 1033.226 402.268, 1033.200 402.329, 1023.717 408.852 C 1011.873 416.998, 1004.417 418.346, 982 416.393 C 959.409 414.425, 960.103 414.114, 971.055 421.311 C 981.044 427.875, 991.381 432, 997.843 432 C 1003.774 432, 1010.121 434.649, 1015.016 439.167 C 1021.408 445.066, 1033.156 452.559, 1039.119 454.539 C 1045.308 456.595, 1051.007 455.720, 1062.449 450.957 C 1078.655 444.210, 1091.357 433.123, 1097.796 420.103 C 1101.115 413.393, 1101.531 411.672, 1101.797 403.557 C 1102.183 391.801, 1100.405 387.658, 1094.775 387.191 C 1084.731 386.358, 1070.043 400.878, 1070.010 411.673 C 1070.004 413.639, 1070.985 416.017, 1072.589 417.923 C 1074.859 420.622, 1075.813 421.002, 1080.339 421.015 C 1091.583 421.049, 1090.465 424.412, 1076.926 431.285 C 1064.678 437.501, 1056.027 439.323, 1041.500 438.745 C 1032.475 438.385, 1028.749 437.718, 1020.750 435.027 C 1015.388 433.223, 1011 431.397, 1011 430.969 C 1011 430.540, 1013.138 428.962, 1015.750 427.462 C 1029.396 419.624, 1037.063 410.766, 1041.120 398.150 C 1044.422 387.883, 1043.804 366, 1040.212 366 C 1039.751 366, 1038.220 367.238, 1036.809 368.750 M 791.459 432.880 C 778.994 438.541, 771.592 462.952, 779.972 470.760 C 782.988 473.569, 784.141 477.803, 784.736 488.250 L 785.291 498 607.895 498.032 C 446.842 498.060, 376.449 498.818, 370.250 500.590 C 365.615 501.915, 368.142 503.782, 378.750 506.870 C 441.072 525.009, 567.623 542.160, 686 548.511 C 728.521 550.792, 747.568 552.725, 752.953 555.306 C 754.802 556.192, 755.634 557.608, 756.178 560.795 C 757.627 569.281, 760.987 605.131, 763.461 638.500 C 778.795 845.302, 790.992 1017.499, 790.998 1027.267 L 791 1030.034 786.250 1027.618 C 783.638 1026.290, 777.344 1022.470, 772.264 1019.129 C 742.140 999.318, 713.070 987.760, 676 980.853 C 662.219 978.285, 629.533 977.265, 614.964 978.948 C 598.462 980.854, 560.346 987.479, 525.500 994.498 C 465.307 1006.623, 435.089 1011.770, 410.250 1014.127 L 397 1015.385 397 1044.692 L 397 1074 571.599 1074 L 746.197 1074 763.100 1087.464 C 785.490 1105.298, 795.449 1112, 799.559 1112 C 800.470 1112, 804.036 1109.757, 807.481 1107.015 C 810.927 1104.273, 821.763 1096.623, 831.561 1090.015 L 849.375 1078 1025.688 1078 L 1202 1078 1202 1046.679 L 1202 1015.357 1186.750 1014.118 C 1160.527 1011.988, 1129.907 1006.822, 1090.589 997.896 C 1057.026 990.276, 1023.178 983.467, 1006.500 980.981 C 988.081 978.235, 955.715 977.196, 942.458 978.925 C 911.815 982.921, 843.371 1007.563, 821.691 1022.406 C 815.161 1026.876, 809.691 1030, 808.392 1030 C 804.451 1030, 835.113 593.004, 841.625 556.350 C 842.124 553.542, 842.638 553.134, 846.343 552.601 C 850.881 551.948, 888.064 549.484, 908 548.514 C 1032.267 542.471, 1142.506 526.870, 1228.427 503.168 L 1242.353 499.326 1230.927 498.667 C 1224.642 498.305, 1127.588 498.007, 1015.250 498.005 L 811 498 811.002 490.250 C 811.003 482.480, 811.150 482.004, 816.355 472.928 C 819.037 468.251, 819.703 455.931, 817.655 448.886 C 815.502 441.479, 810.858 435.292, 805.688 432.945 C 800.431 430.559, 796.608 430.541, 791.459 432.880 M 407.549 569.921 C 407.236 570.428, 406.436 577.965, 405.772 586.671 C 404.069 608.985, 404.055 860.660, 405.755 884.433 C 406.885 900.236, 407.817 904.723, 409.429 902.115 C 411.416 898.899, 412.188 865.721, 412.676 762.500 C 413.175 657.164, 412.310 587.044, 410.343 573.250 C 409.760 569.167, 408.755 567.969, 407.549 569.921 M 1192.549 569.921 C 1192.236 570.428, 1191.436 577.965, 1190.772 586.671 C 1189.069 608.985, 1189.055 860.660, 1190.755 884.433 C 1191.885 900.236, 1192.817 904.723, 1194.429 902.115 C 1196.416 898.899, 1197.188 865.721, 1197.676 762.500 C 1198.175 657.164, 1197.310 587.044, 1195.343 573.250 C 1194.760 569.167, 1193.755 567.969, 1192.549 569.921 M 420.038 583.454 C 419.076 584.614, 419.574 587.504, 422.495 597.704 C 438.999 655.330, 515.943 885.207, 524.039 901.077 C 526.229 905.370, 528.357 906.500, 530.401 904.456 C 531.679 903.178, 531.547 901.854, 529.338 893.749 C 518.530 854.110, 448.273 643.026, 430.001 595.296 C 426.982 587.412, 423.746 582, 422.050 582 C 421.607 582, 420.702 582.654, 420.038 583.454 M 1205.038 583.454 C 1204.076 584.614, 1204.574 587.504, 1207.495 597.704 C 1223.999 655.330, 1300.943 885.207, 1309.039 901.077 C 1311.229 905.370, 1313.357 906.500, 1315.401 904.456 C 1316.679 903.178, 1316.547 901.854, 1314.338 893.749 C 1303.530 854.110, 1233.273 643.026, 1215.001 595.296 C 1211.982 587.412, 1208.746 582, 1207.050 582 C 1206.607 582, 1205.702 582.654, 1205.038 583.454 M 390.652 584.832 C 388.924 586.742, 383.080 603.279, 344.826 714.500 C 296.230 855.795, 281.260 904, 285.977 904 C 290.941 904, 314.609 839.109, 382.581 639.138 C 391.061 614.188, 398 592.221, 398 590.322 C 398 583.632, 394.264 580.841, 390.652 584.832 M 1175.652 584.832 C 1173.924 586.742, 1168.080 603.279, 1129.826 714.500 C 1081.230 855.795, 1066.260 904, 1070.977 904 C 1075.941 904, 1099.609 839.109, 1167.581 639.138 C 1176.061 614.188, 1183 592.221, 1183 590.322 C 1183 583.632, 1179.264 580.841, 1175.652 584.832 M 307.636 924.074 C 292.860 924.489, 280.366 925.234, 279.870 925.730 C 279.335 926.265, 281.993 928.547, 286.411 931.346 C 290.505 933.939, 298.724 939.870, 304.677 944.525 L 315.500 952.989 406 952.786 C 455.775 952.674, 493.575 952.304, 490 951.964 C 485.985 951.582, 484.838 951.262, 487 951.129 C 493.077 950.753, 497.598 948.484, 504.390 942.403 C 508.016 939.156, 513.799 934.822, 517.241 932.772 C 520.684 930.722, 524.175 928.631, 525 928.126 C 531.642 924.059, 507.974 923.035, 411 923.194 C 368.925 923.263, 322.411 923.659, 307.636 924.074 M 1092.636 924.074 C 1077.860 924.489, 1065.366 925.234, 1064.870 925.730 C 1064.335 926.265, 1066.993 928.547, 1071.411 931.346 C 1075.505 933.939, 1083.724 939.863, 1089.677 944.510 L 1100.500 952.960 1170.500 952.955 C 1239.704 952.950, 1270.953 952.089, 1278.259 949.984 C 1280.429 949.359, 1285.078 946.185, 1289.255 942.476 C 1293.236 938.942, 1299.093 934.576, 1302.272 932.775 C 1305.450 930.974, 1308.827 928.968, 1309.775 928.317 C 1313.451 925.797, 1309.378 924.858, 1290.876 923.960 C 1269.216 922.909, 1131.301 922.989, 1092.636 924.074 M 1005.409 1145.378 C 1004.417 1147.962, 1010.436 1159.283, 1022.754 1178 C 1036.605 1199.048, 1055.285 1225.265, 1060.339 1230.750 C 1064.459 1235.222, 1067.009 1236.181, 1066.986 1233.250 C 1066.937 1227.138, 1021.991 1159.268, 1010.580 1148.076 C 1006.777 1144.346, 1005.967 1143.923, 1005.409 1145.378 M 677.546 1158.300 C 671.053 1172.981, 654 1243.703, 654 1255.948 C 654 1260.709, 655.390 1261.871, 657.390 1258.782 C 662.078 1251.544, 681.163 1174.427, 682.184 1158.598 C 682.635 1151.607, 680.565 1151.474, 677.546 1158.300 M 635.500 1155.167 C 631.405 1157.432, 628.659 1160.664, 625.869 1166.500 C 620.398 1177.948, 622.905 1182.867, 633.534 1181.539 C 638.837 1180.876, 655.728 1176.606, 656.636 1175.698 C 656.876 1175.458, 654.018 1174.499, 650.286 1173.567 C 641.780 1171.442, 635 1167.620, 635 1164.949 C 635 1163.154, 635.479 1163.039, 640.500 1163.629 L 646 1164.275 646 1160.793 C 646 1155.037, 640.786 1152.243, 635.500 1155.167 M 979 1156.858 C 979 1160.406, 987.932 1175.437, 1001.754 1195.151 C 1007.394 1203.194, 1014.915 1214.421, 1018.467 1220.100 C 1024.638 1229.966, 1024.849 1230.510, 1023.213 1232.323 C 1019.226 1236.740, 996.483 1245.983, 985.782 1247.534 C 979.692 1248.416, 978.186 1250.109, 980.436 1253.543 C 984.831 1260.251, 994.943 1261.828, 1008.849 1257.975 C 1023.627 1253.879, 1032.198 1247.794, 1033.582 1240.414 C 1034.878 1233.504, 1028.665 1219.523, 1016.510 1202 C 1007.813 1189.460, 997.289 1171.353, 996.617 1167.771 C 995.665 1162.699, 985.976 1154, 981.277 1154 C 979.439 1154, 979 1154.551, 979 1156.858 M 910.099 1168.013 C 897.699 1171.191, 875.153 1178.439, 870.750 1180.663 C 866.728 1182.694, 867.281 1184.219, 871.750 1183.419 C 885.371 1180.981, 923.835 1169.347, 927.541 1166.545 C 929.376 1165.157, 929.247 1165.064, 925.500 1165.077 C 923.300 1165.085, 916.369 1166.406, 910.099 1168.013 M 588.776 1201.750 C 585.665 1205.297, 583.880 1210.282, 583.020 1217.823 C 581.943 1227.271, 579.064 1235.260, 574.930 1240.271 C 569.204 1247.213, 568.440 1247.363, 542.891 1246.561 C 526.600 1246.050, 520.017 1246.163, 519.523 1246.963 C 518.539 1248.556, 525.513 1254.613, 531.997 1257.797 C 536.807 1260.160, 538.699 1260.500, 547.021 1260.500 C 555.769 1260.500, 557.086 1260.232, 563.236 1257.205 C 567.281 1255.213, 573.209 1250.895, 578.215 1246.294 C 591.494 1234.089, 592.698 1233.628, 602.500 1237 C 605.697 1238.100, 610.515 1239, 613.206 1239 C 624.052 1239, 628.615 1233.153, 632.519 1214.255 C 634.300 1205.631, 633.885 1202, 631.116 1202 C 626.201 1202, 622.240 1208.757, 620.518 1220.076 C 620.219 1222.043, 619.371 1224.478, 618.634 1225.486 C 617.341 1227.254, 617.130 1227.241, 612.758 1225.125 C 604.380 1221.069, 597.556 1212.185, 594.421 1201.250 C 593.898 1199.426, 590.553 1199.722, 588.776 1201.750 M 700.923 1202.923 C 696.037 1207.809, 697.736 1213.389, 705.361 1217.495 C 708.850 1219.374, 708.930 1219.373, 711.056 1217.450 C 714.340 1214.480, 717.247 1208.122, 716.565 1205.402 C 715.854 1202.569, 711.292 1200, 706.973 1200 C 704.850 1200, 702.907 1200.939, 700.923 1202.923 M 921.415 1226.421 C 917.439 1228.153, 914.293 1232.198, 912.900 1237.370 C 911.831 1241.343, 912.123 1249.456, 913.381 1250.714 C 913.719 1251.052, 916.383 1250.121, 919.300 1248.645 C 925.420 1245.549, 934.200 1244.496, 943.797 1245.706 L 950.093 1246.500 933.797 1255.182 C 924.833 1259.957, 914.744 1264.780, 911.375 1265.901 C 900.314 1269.578, 885.555 1270.255, 828.183 1269.716 C 749.197 1268.973, 734.048 1266.656, 718.619 1252.960 C 714.926 1249.682, 711.042 1247, 709.987 1247 C 705.764 1247, 704.903 1253.171, 706.410 1272.653 C 707.219 1283.111, 707.133 1284.093, 705.040 1288.417 C 701.168 1296.415, 693.697 1299.595, 665.961 1305.051 C 656.908 1306.832, 649.113 1308.634, 648.639 1309.055 C 647.339 1310.213, 672.281 1318.003, 677.207 1317.978 C 679.568 1317.966, 683.443 1317.075, 685.817 1315.997 C 692.319 1313.046, 702.546 1302.663, 709.620 1291.830 C 713.093 1286.511, 716.949 1281.449, 718.190 1280.580 C 720.750 1278.786, 724.974 1278.558, 729.831 1279.951 C 740.917 1283.131, 776.979 1286.607, 814.352 1288.098 C 864.193 1290.087, 907.118 1286.051, 923.323 1277.853 C 925.620 1276.691, 934.444 1271.236, 942.931 1265.731 C 961.831 1253.473, 978.117 1244.869, 987.797 1242.028 C 995.897 1239.652, 1001.535 1235.558, 1000.484 1232.818 C 999.266 1229.644, 993.756 1228.790, 969 1227.941 C 955.525 1227.479, 942.076 1226.628, 939.114 1226.050 C 931.904 1224.645, 925.172 1224.786, 921.415 1226.421 M 960.073 1279.635 C 955.831 1285.027, 958.940 1294, 965.050 1294 C 968.660 1294, 971.200 1290.489, 971.200 1285.500 C 971.200 1277.602, 964.464 1274.052, 960.073 1279.635" stroke="none" fill="#b49c34" fill-rule="evenodd"/></svg>